{"title":"Babai Abbai (1984) Telugu Movie - teluguppls","uid":6543803,"size":416010252,"categoryP":"video","categoryS":"movies","magnet":"?xt=urn:btih:e2cdde7b00776f159ae8805933012fe3cbbe473f&amp;dn=Babai+Abbai+%281984%29+Telugu+Movie+-+teluguppls&amp;tr=udp%3A%2F%2Ftracker.openbittorrent.com%3A80&amp;tr=udp%3A%2F%2Fopen.demonii.com%3A1337&amp;tr=udp%3A%2F%2Ftracker.coppersurfer.tk%3A6969&amp;tr=udp%3A%2F%2Fexodus.desync.com%3A6969","seeders":0,"leechers":1,"uploader":"n1212","files":2,"time":1310785024,"description":"Babai Abbai (1984) Telugu Movie - teluguppls\n\n\n\nGeneral\n\nFormat                           : RealMedia\nFile size                        : 397 MiB\nDuration                         : 2h 0mn\nOverall bit rate                 : 451 Kbps\n\n\nVideo\n\nFormat                           : RealVideo 4\nCodec ID                         : RV40\nCodec ID/Info                    : Based on AVC (H.264), Real Player 9\nDuration                         : 2h 0mn\nBit rate                         : 387 Kbps\nWidth                            : 352 pixels\nHeight                           : 288 pixels\nDisplay aspect ratio             : 1.222\nFrame rate                       : 30.000 fps\nStandard                         : PAL\nBits/(Pixel*Frame)               : 0.127\nStream size                      : 335 MiB (84%)\n\nAudio\n\nFormat                           : Cooker\nCodec ID                         : cook\nCodec ID/Info                    : Based on G.722.1, Real Player 6\nDuration                         : 2h 0mn\nBit rate                         : 64.1 Kbps\nChannel(s)                       : 2 channels\nSampling rate                    : 44.1 KHz\nBit depth                        : 16 bits\nStream size                      : 55.4 MiB (14%)\n\n\n\n","torrent":{"xt":"urn:btih:e2cdde7b00776f159ae8805933012fe3cbbe473f","amp;dn":"Babai+Abbai+%281984%29+Telugu+Movie+-+teluguppls","amp;tr":["udp%3A%2F%2Ftracker.openbittorrent.com%3A80","udp%3A%2F%2Fopen.demonii.com%3A1337","udp%3A%2F%2Ftracker.coppersurfer.tk%3A6969","udp%3A%2F%2Fexodus.desync.com%3A6969"],"infoHash":"e2cdde7b00776f159ae8805933012fe3cbbe473f","infoHashBuffer":{"type":"Buffer","data":[226,205,222,123,0,119,111,21,154,232,128,89,51,1,47,227,203,190,71,63]},"announce":[],"urlList":[]}}